<svg id="Candidat" xmlns="http://www.w3.org/2000/svg" width="179" height="38.8" viewBox="0 0 179 38.8">
  <g id="logo">
    <g id="Group-4">
      <path id="Combined-Shape" d="M31.127,0A17.2,17.2,0,1,1,14.042,19.2H22.1a9.4,9.4,0,1,0,0-3.6H14A17.2,17.2,0,0,1,31.127,0Z" fill="#eac336" fill-rule="evenodd"/>
      <path id="Combined-Shape-2" data-name="Combined-Shape" d="M17.2,4.4A17.2,17.2,0,0,1,34.285,19.6H26.228a9.4,9.4,0,1,0,0,3.6h8.1A17.2,17.2,0,1,1,17.2,4.4Z" fill="#3d3d3d" fill-rule="evenodd"/>
      <path id="Combined-Shape-3" data-name="Combined-Shape" d="M31.085,34.4A17.2,17.2,0,0,1,14,19.2h8.056l.056.263a9.4,9.4,0,0,0,18.4-.263H48.17A17.2,17.2,0,0,1,31.085,34.4Zm0-34.4a17.125,17.125,0,0,1,8.057,2H23.028A17.125,17.125,0,0,1,31.085,0Z" fill="#eac336" fill-rule="evenodd"/>
    </g>
    <g id="clic_nclac" data-name="clic’nclac" transform="translate(67 10)">
      <path id="clic_nclac-2" data-name="clic’nclac" d="M74.087,29a7.408,7.408,0,0,0,2.7-.458,6.5,6.5,0,0,0,2.221-1.4h0l-2.3-2.461a2.829,2.829,0,0,1-1.089.722,4.242,4.242,0,0,1-1.507.245,3.336,3.336,0,0,1-1.267-.245,3.077,3.077,0,0,1-1.052-.7,3.429,3.429,0,0,1-.72-1.124,4.359,4.359,0,0,1-.006-3.008,3.385,3.385,0,0,1,.72-1.124,3.1,3.1,0,0,1,1.058-.71,3.336,3.336,0,0,1,1.267-.245,4.205,4.205,0,0,1,1.464.245,2.952,2.952,0,0,1,1.107.7h0l2.289-2.461A6.63,6.63,0,0,0,76.757,15.6a7.562,7.562,0,0,0-2.67-.465,7.263,7.263,0,0,0-2.873.553,6.955,6.955,0,0,0-2.239,1.5,6.714,6.714,0,0,0-1.458,2.21A7.006,7.006,0,0,0,67,22.08a6.888,6.888,0,0,0,.523,2.675,6.727,6.727,0,0,0,3.7,3.686A7.507,7.507,0,0,0,74.087,29Zm12.136-.4V25.3H85.6a2.207,2.207,0,0,1-.548-.057.644.644,0,0,1-.345-.213.935.935,0,0,1-.178-.44,4.436,4.436,0,0,1-.049-.735h0V10.892h-3.8V23.9a10.459,10.459,0,0,0,.2,2.254,2.705,2.705,0,0,0,2.184,2.216,10.193,10.193,0,0,0,2.362.226h.8ZM89.55,14.106a2.6,2.6,0,0,0,.941-.163,2.263,2.263,0,0,0,.726-.44,1.879,1.879,0,0,0,.461-.647,2.052,2.052,0,0,0,0-1.589,1.927,1.927,0,0,0-.461-.659,2.219,2.219,0,0,0-.72-.446,2.76,2.76,0,0,0-1.87,0,2.219,2.219,0,0,0-.72.446,1.927,1.927,0,0,0-.461.659,2,2,0,0,0-.16.791,1.9,1.9,0,0,0,.166.785,2.065,2.065,0,0,0,.461.653,2.147,2.147,0,0,0,.714.446A2.518,2.518,0,0,0,89.55,14.106Zm1.895,14.479V15.563H87.618V28.585Zm9.27.414a7.408,7.408,0,0,0,2.7-.458,6.5,6.5,0,0,0,2.221-1.4h0l-2.3-2.461a2.829,2.829,0,0,1-1.089.722,4.242,4.242,0,0,1-1.507.245,3.336,3.336,0,0,1-1.267-.245,3.077,3.077,0,0,1-1.052-.7,3.429,3.429,0,0,1-.72-1.124,4.359,4.359,0,0,1-.006-3.008,3.385,3.385,0,0,1,.72-1.124,3.1,3.1,0,0,1,1.058-.71,3.336,3.336,0,0,1,1.267-.245,4.205,4.205,0,0,1,1.464.245,2.952,2.952,0,0,1,1.107.7h0l2.288-2.461a6.63,6.63,0,0,0-2.215-1.369,7.562,7.562,0,0,0-2.67-.465,7.263,7.263,0,0,0-2.873.553,6.956,6.956,0,0,0-2.239,1.5,6.715,6.715,0,0,0-1.458,2.21,7.006,7.006,0,0,0-.517,2.681,6.888,6.888,0,0,0,.523,2.675,6.727,6.727,0,0,0,3.7,3.686A7.507,7.507,0,0,0,100.714,29Zm16.558-.414V22.043a4.629,4.629,0,0,1,.209-1.419,3.241,3.241,0,0,1,.609-1.124,2.877,2.877,0,0,1,.966-.741,2.906,2.906,0,0,1,1.267-.27,3.025,3.025,0,0,1,1.015.163,1.9,1.9,0,0,1,.794.534,2.553,2.553,0,0,1,.517.986,5.36,5.36,0,0,1,.185,1.519h0v6.894h3.826V21.6a10.074,10.074,0,0,0-.332-2.7,5.328,5.328,0,0,0-1.034-2.028,4.527,4.527,0,0,0-1.8-1.281,6.94,6.94,0,0,0-2.621-.446,5.737,5.737,0,0,0-1.138.113,7.907,7.907,0,0,0-1.089.3,7.478,7.478,0,0,0-1.882.992h0l-.234-.992h-3.064V28.585ZM140.056,29a7.408,7.408,0,0,0,2.7-.458,6.5,6.5,0,0,0,2.221-1.4h0l-2.3-2.461a2.829,2.829,0,0,1-1.089.722,4.242,4.242,0,0,1-1.507.245,3.336,3.336,0,0,1-1.267-.245,3.078,3.078,0,0,1-1.052-.7,3.43,3.43,0,0,1-.72-1.124,4.359,4.359,0,0,1-.006-3.008,3.385,3.385,0,0,1,.72-1.124,3.1,3.1,0,0,1,1.058-.71,3.336,3.336,0,0,1,1.267-.245,4.205,4.205,0,0,1,1.464.245,2.952,2.952,0,0,1,1.107.7h0l2.288-2.461a6.63,6.63,0,0,0-2.215-1.369,7.562,7.562,0,0,0-2.67-.465,7.263,7.263,0,0,0-2.873.553,6.955,6.955,0,0,0-2.239,1.5,6.714,6.714,0,0,0-1.458,2.21,7.006,7.006,0,0,0-.517,2.681,6.888,6.888,0,0,0,.523,2.675,6.727,6.727,0,0,0,3.7,3.686A7.507,7.507,0,0,0,140.056,29Zm12.136-.4V25.3h-.627a2.207,2.207,0,0,1-.548-.057.644.644,0,0,1-.345-.213.935.935,0,0,1-.178-.44,4.436,4.436,0,0,1-.049-.735h0V10.892h-3.8V23.9a10.458,10.458,0,0,0,.2,2.254,2.705,2.705,0,0,0,2.184,2.216,10.193,10.193,0,0,0,2.362.226h.8Zm5.135.326a7.321,7.321,0,0,0,1.273-.088,8.03,8.03,0,0,0,1.261-.3,8.741,8.741,0,0,0,1.193-.49,7.212,7.212,0,0,0,1.07-.653h0l.271,1.193h3.076V19.556a3.765,3.765,0,0,0-1.71-3.259,6.255,6.255,0,0,0-1.987-.854,10.589,10.589,0,0,0-2.6-.3,9.575,9.575,0,0,0-2.381.276,5.663,5.663,0,0,0-1.864.829,3.975,3.975,0,0,0-1.237,1.388,4.464,4.464,0,0,0-.5,1.94h0l3.839-.013a.769.769,0,0,1,.178-.471,1.554,1.554,0,0,1,.48-.4,2.993,2.993,0,0,1,.707-.276,3.426,3.426,0,0,1,.874-.107,3.135,3.135,0,0,1,1.723.414,1.289,1.289,0,0,1,.664,1.055h0v.879l-1.187-.025q-.6-.013-1.138-.013a17.639,17.639,0,0,0-2.578.176,7.025,7.025,0,0,0-2.061.6,3.435,3.435,0,0,0-1.366,1.149,3.127,3.127,0,0,0-.492,1.8,5.338,5.338,0,0,0,.363,2.078,3.9,3.9,0,0,0,.978,1.413,3.85,3.85,0,0,0,1.427.81A5.941,5.941,0,0,0,157.328,28.924Zm1.427-3.039a4.18,4.18,0,0,1-.781-.069,2,2,0,0,1-.634-.226,1.2,1.2,0,0,1-.431-.421,1.213,1.213,0,0,1-.16-.64.83.83,0,0,1,.24-.615,1.65,1.65,0,0,1,.658-.377,4.624,4.624,0,0,1,.984-.195q.566-.057,1.206-.057.591,0,1.015.013l.794.025h0v1.218a1.715,1.715,0,0,1-.455.54,3.1,3.1,0,0,1-.7.427,4.437,4.437,0,0,1-.843.276A4.076,4.076,0,0,1,158.756,25.885ZM174.078,29a7.408,7.408,0,0,0,2.7-.458,6.5,6.5,0,0,0,2.221-1.4h0l-2.3-2.461a2.829,2.829,0,0,1-1.089.722,4.242,4.242,0,0,1-1.507.245,3.336,3.336,0,0,1-1.267-.245,3.078,3.078,0,0,1-1.052-.7,3.43,3.43,0,0,1-.72-1.124,4.359,4.359,0,0,1-.006-3.008,3.385,3.385,0,0,1,.72-1.124,3.1,3.1,0,0,1,1.058-.71,3.336,3.336,0,0,1,1.267-.245,4.205,4.205,0,0,1,1.464.245,2.952,2.952,0,0,1,1.107.7h0l2.288-2.461a6.63,6.63,0,0,0-2.215-1.369,7.562,7.562,0,0,0-2.67-.465,7.263,7.263,0,0,0-2.873.553,6.955,6.955,0,0,0-2.239,1.5,6.714,6.714,0,0,0-1.458,2.21,7.006,7.006,0,0,0-.517,2.681,6.888,6.888,0,0,0,.523,2.675,6.727,6.727,0,0,0,3.7,3.686A7.507,7.507,0,0,0,174.078,29Z" transform="translate(-67 -10)" fill="#3d3d3d"/>
    </g>
    <g id="clic_nclac-3" data-name="clic’nclac" transform="translate(107.268 10.075)">
      <path id="clic_nclac-4" data-name="clic’nclac" d="M108.975,17.283l2.768-6.894-3.347-.314-2.129,7.108Z" transform="translate(-106.268 -10.075)" fill="#eac435"/>
    </g>
  </g>
</svg>
