<?xml version="1.0" encoding="UTF-8"?>
<svg width="85px" height="69px" viewBox="0 0 85 69" version="1.1" xmlns="http://www.w3.org/2000/svg" xmlns:xlink="http://www.w3.org/1999/xlink">
    <!-- Generator: Sketch 63.1 (92452) - https://sketch.com -->
    <title>logo_sans</title>
    <desc>Created with Sketch.</desc>
    <g id="Candidat" stroke="none" stroke-width="1" fill="none" fill-rule="evenodd">
        <g id="Accueil" transform="translate(-1202.000000, -535.000000)">
            <g id="logo_sans" transform="translate(1202.000000, 535.000000)">
                <path d="M54.4347518,-3.55271368e-14 C71.3154723,-2.84217094e-14 85,13.6553151 85,30.5 C85,47.3446849 71.3154723,61 54.4347518,61 C38.7563521,61 25.8350647,49.2205981 24.0739759,34.0469424 L38.3918301,34.0465064 C39.8841458,41.7254277 46.6586276,47.5232558 54.7901617,47.5232558 C64.0156717,47.5232558 71.4944252,40.0604673 71.4944252,30.8546512 C71.4944252,21.648835 64.0156717,14.1860465 54.7901617,14.1860465 C46.6589106,14.1860465 39.8846174,19.983471 38.3919859,27.6619942 L24.0000377,27.6623727 C25.4344226,12.1480849 38.5128836,-3.55271368e-14 54.4347518,-3.55271368e-14 Z" id="Combined-Shape" fill="#EAC336"></path>
                <path d="M30.5652482,8 C46.2436479,8 59.1649353,19.7794019 60.9260241,34.9530576 L46.6081699,34.9534936 C45.1158542,27.2745723 38.3413724,21.4767442 30.2098383,21.4767442 C20.9843283,21.4767442 13.5055748,28.9395327 13.5055748,38.1453488 C13.5055748,47.351165 20.9843283,54.8139535 30.2098383,54.8139535 C38.3410894,54.8139535 45.1153826,49.016529 46.6080141,41.3380058 L60.9999623,41.3376273 C59.5655774,56.8519151 46.4871164,69 30.5652482,69 C13.6845277,69 0,55.3446849 0,38.5 C0,21.6553151 13.6845277,8 30.5652482,8 Z" id="Combined-Shape" fill="#3D3D3D"></path>
                <path d="M54.5,61 C38.7497088,61 25.7691725,49.2205981 24.0000084,34.0469424 L38.3835154,34.0465064 C39.882674,41.7254277 46.6882193,47.5232558 54.8570396,47.5232558 C63.0258598,47.5232558 69.8314051,41.7254277 71.3305637,34.0465064 L84.9999916,34.0469424 C83.2308275,49.2205981 70.2502912,61 54.5,61 Z M54.5,-9.23705556e-14 C59.6965979,-9.01931894e-14 64.5916853,1.28228418 68.8820706,3.54568908 L40.1181181,3.54558953 C44.4084583,1.28224659 49.3034783,-9.23705556e-14 54.5,-9.23705556e-14 Z" id="Combined-Shape" fill="#EAC336"></path>
            </g>
        </g>
    </g>
</svg>